<svg width="22" height="22" viewBox="0 0 22 22" fill="none" xmlns="http://www.w3.org/2000/svg">
<path d="M11 0.333344C8.06665 0.333344 5.66665 2.73334 5.66665 5.66668C5.66665 8.60001 8.06665 11 11 11C13.9333 11 16.3333 8.60001 16.3333 5.66668C16.3333 2.73334 13.9333 0.333344 11 0.333344ZM11 8.46668C9.39998 8.46668 8.19998 7.26668 8.19998 5.66668C8.19998 4.06668 9.39998 2.86668 11 2.86668C12.6 2.86668 13.8 4.06668 13.8 5.66668C13.8 7.26668 12.6 8.46668 11 8.46668ZM11 12.3333C7.39998 12.3333 0.333313 14.0667 0.333313 17.6667V21.6667H21.6666V17.6667C21.6666 14.0667 14.6 12.3333 11 12.3333ZM19.1333 19.1333H2.86665V17.6667C2.86665 16.8667 6.99998 14.8667 11 14.8667C15 14.8667 19.1333 16.8667 19.1333 17.6667V19.1333Z" fill="#0E1116"/>
</svg>
