<svg width="28" height="26" viewBox="0 0 28 26" fill="none" xmlns="http://www.w3.org/2000/svg">
<path d="M1 1H2.848C3.528 1 4.12133 1.45733 4.29733 2.11333L4.808 4.02933M8 16C6.93913 16 5.92172 16.4214 5.17157 17.1716C4.42143 17.9217 4 18.9391 4 20H25M8 16H22.9573C24.452 12.9333 25.7573 9.75467 26.856 6.48267C19.6559 4.64687 12.2355 3.82118 4.808 4.02933M8 16L4.808 4.02933M6 24C6 24.2652 5.89464 24.5196 5.70711 24.7071C5.51957 24.8946 5.26522 25 5 25C4.73478 25 4.48043 24.8946 4.29289 24.7071C4.10536 24.5196 4 24.2652 4 24C4 23.7348 4.10536 23.4804 4.29289 23.2929C4.48043 23.1054 4.73478 23 5 23C5.26522 23 5.51957 23.1054 5.70711 23.2929C5.89464 23.4804 6 23.7348 6 24V24ZM23 24C23 24.2652 22.8946 24.5196 22.7071 24.7071C22.5196 24.8946 22.2652 25 22 25C21.7348 25 21.4804 24.8946 21.2929 24.7071C21.1054 24.5196 21 24.2652 21 24C21 23.7348 21.1054 23.4804 21.2929 23.2929C21.4804 23.1054 21.7348 23 22 23C22.2652 23 22.5196 23.1054 22.7071 23.2929C22.8946 23.4804 23 23.7348 23 24V24Z" stroke="black" stroke-width="1.5" stroke-linecap="round" stroke-linejoin="round"/>
</svg>
